<?xml version="1.0" standalone="no"?>
<!DOCTYPE svg PUBLIC "-//W3C//DTD SVG 20010904//EN"
 "http://www.w3.org/TR/2001/REC-SVG-20010904/DTD/svg10.dtd">
<svg version="1.0" xmlns="http://www.w3.org/2000/svg"
 width="300.000000pt" height="300.000000pt" viewBox="0 0 300.000000 300.000000"
 preserveAspectRatio="xMidYMid meet">

<g transform="translate(0.000000,300.000000) scale(0.100000,-0.100000)"
fill="#fff" stroke="none">
<path d="M15 2978 c-3 -7 -4 -677 -3 -1488 l3 -1475 58 -3 57 -3 0 386 0 385
89 0 88 0 47 70 46 70 0 238 0 237 -35 53 -36 52 36 52 35 53 0 237 0 238 -46
70 -47 70 -88 0 -89 0 0 385 0 385 -55 0 c-35 0 -57 -5 -60 -12z m263 -1130
l2 -258 -75 0 -75 0 0 253 c0 140 3 257 7 261 4 4 37 6 73 4 l65 -3 3 -257z
m0 -695 l-3 -258 -70 0 -70 0 -3 258 -2 257 75 0 75 0 -2 -257z"/>
<path d="M1160 1500 l0 -1491 58 3 57 3 3 383 2 382 70 0 70 0 2 -383 3 -382
55 0 55 0 3 371 2 371 -41 38 -41 37 41 42 41 42 0 248 0 248 -35 41 c-19 22
-35 43 -35 47 0 4 16 25 35 47 l35 41 0 248 0 248 -41 42 -41 42 41 37 41 38
-2 371 -3 371 -55 0 -55 0 -3 -382 -2 -383 -70 0 -70 0 -2 383 -3 382 -57 3
-58 3 0 -1491z m260 350 l0 -260 -70 0 -70 0 0 260 0 260 70 0 70 0 0 -260z
m0 -700 l0 -260 -70 0 -70 0 0 260 0 260 70 0 70 0 0 -260z"/>
<path d="M1690 1500 l0 -1490 60 0 60 0 0 385 0 385 84 0 84 0 46 64 46 65 0
247 0 247 -31 49 -31 48 31 48 31 49 0 247 0 247 -46 65 -46 64 -84 0 -84 0 0
385 0 385 -60 0 -60 0 0 -1490z m260 350 l0 -260 -70 0 -70 0 0 260 0 260 70
0 70 0 0 -260z m0 -700 l0 -260 -70 0 -70 0 0 260 0 260 70 0 70 0 0 -260z"/>
<path d="M2220 1500 l0 -1491 158 3 157 3 0 60 0 60 -97 3 -98 3 0 1359 0
1359 98 3 97 3 0 60 0 60 -157 3 -158 3 0 -1491z"/>
<path d="M2670 1500 l0 -1490 160 0 160 0 0 65 0 65 -100 0 -100 0 2 318 3
317 95 1 95 2 3 61 3 61 -101 0 -100 0 0 255 0 254 98 3 97 3 0 85 0 85 -97 3
-98 3 0 254 0 255 100 0 101 0 -3 61 -3 61 -95 2 -95 1 -3 318 -2 317 100 0
100 0 0 65 0 65 -160 0 -160 0 0 -1490z"/>
<path d="M638 2933 l-58 -46 0 -1387 0 -1387 58 -46 c57 -47 57 -47 135 -47
l78 0 59 48 60 47 0 1385 0 1385 -60 48 -59 47 -78 0 c-78 0 -78 0 -135 -47z
m212 -1433 l0 -1340 -75 0 -75 0 0 1340 0 1340 75 0 75 0 0 -1340z"/>
</g>
</svg>
