<?xml version="1.0" standalone="no"?>
<!DOCTYPE svg PUBLIC "-//W3C//DTD SVG 20010904//EN"
 "http://www.w3.org/TR/2001/REC-SVG-20010904/DTD/svg10.dtd">
<svg version="1.0" xmlns="http://www.w3.org/2000/svg"
 width="223.000000pt" height="300.000000pt" viewBox="0 0 223.000000 300.000000"
 preserveAspectRatio="xMidYMid meet">

<g transform="translate(0.000000,300.000000) scale(0.100000,-0.100000)"
fill="#ffffff" stroke="none">
<path d="M10 1500 l0 -1490 1105 0 1105 0 0 1490 0 1490 -1105 0 -1105 0 0
-1490z m2150 0 l0 -1430 -1045 0 -1045 0 0 1430 0 1430 1045 0 1045 0 0 -1430z"/>
<path d="M290 1499 l0 -830 33 3 32 3 3 213 2 212 45 0 c41 0 47 3 75 42 30
41 30 42 30 172 0 113 -3 135 -19 160 -20 29 -20 30 0 57 16 23 19 44 19 158
0 125 -1 133 -26 171 -25 38 -30 40 -75 40 l-49 0 0 215 0 215 -35 0 -35 0 0
-831z m150 196 l0 -145 -40 0 -40 0 0 145 0 145 40 0 40 0 0 -145z m0 -380 l0
-145 -40 0 -40 0 0 145 0 145 40 0 40 0 0 -145z"/>
<path d="M642 2302 l-32 -27 0 -769 0 -770 27 -28 c37 -39 109 -40 159 -2 l34
26 0 768 0 768 -35 31 c-48 41 -105 43 -153 3z m118 -797 l0 -745 -40 0 -40 0
0 745 0 745 40 0 40 0 0 -745z"/>
<path d="M932 1503 l3 -827 30 0 30 0 3 212 2 212 40 0 40 0 0 -212 0 -213 30
0 30 0 0 211 c0 199 -1 212 -20 229 l-20 18 20 22 c18 19 20 35 20 165 0 119
-3 146 -17 162 -15 17 -15 19 0 36 14 16 17 43 17 162 0 134 -2 145 -22 167
l-21 23 21 23 c21 22 22 32 22 230 l0 207 -30 0 -30 0 0 -215 0 -215 -40 0
-40 0 0 215 0 215 -35 0 -35 0 2 -827z m146 190 l3 -143 -41 0 -40 0 0 146 0
145 38 -3 37 -3 3 -142z m2 -378 l0 -145 -40 0 -40 0 0 145 0 145 40 0 40 0 0
-145z"/>
<path d="M1230 1499 l0 -830 31 3 31 3 -2 213 -1 212 50 0 c47 0 52 3 76 37
24 36 25 44 25 178 0 112 -3 145 -16 163 -14 21 -14 25 0 47 13 19 16 53 16
165 0 129 -2 143 -22 175 -21 30 -28 34 -73 37 l-50 3 -3 213 -2 212 -30 0
-30 0 0 -831z m148 194 l3 -143 -46 0 -45 0 0 138 c0 76 3 142 7 146 4 4 23 6
43 4 l35 -3 3 -142z m0 -380 l3 -143 -46 0 -45 0 0 138 c0 76 3 142 7 146 4 4
23 6 43 4 l35 -3 3 -142z"/>
<path d="M1528 1915 c-2 -228 -2 -602 0 -830 l3 -415 84 0 85 0 0 34 0 35 -52
3 -53 3 -3 758 -2 757 55 0 55 0 0 35 0 35 -85 0 -84 0 -3 -415z"/>
<path d="M1780 1500 l0 -830 85 0 85 0 0 40 0 40 -55 0 -55 0 0 175 0 175 55
0 55 0 0 34 0 35 -52 3 -53 3 0 140 0 140 52 3 c46 3 54 6 59 27 3 13 3 33 -1
44 -5 18 -14 21 -61 21 l-54 0 0 140 0 140 55 0 55 0 0 34 0 35 -52 3 -53 3 0
175 0 175 53 3 52 3 0 35 0 34 -85 0 -85 0 0 -830z"/>
</g>
</svg>
